<?xml version="1.0" encoding="UTF-8" standalone="no"?>
<!-- Generator: Adobe Illustrator 19.2.0, SVG Export Plug-In . SVG Version: 6.00 Build 0)  -->

<svg
   xmlns:dc="http://purl.org/dc/elements/1.1/"
   xmlns:cc="http://creativecommons.org/ns#"
   xmlns:rdf="http://www.w3.org/1999/02/22-rdf-syntax-ns#"
   xmlns:svg="http://www.w3.org/2000/svg"
   xmlns="http://www.w3.org/2000/svg"
   xmlns:sodipodi="http://sodipodi.sourceforge.net/DTD/sodipodi-0.dtd"
   xmlns:inkscape="http://www.inkscape.org/namespaces/inkscape"
   version="1.1"
   id="Layer_1"
   x="0px"
   y="0px"
   width="255px"
   height="247px"
   viewBox="0 0 255 247"
   style="enable-background:new 0 0 255 247;"
   xml:space="preserve"
   inkscape:version="0.91 r13725"
   sodipodi:docname="registra.svg"><metadata
     id="metadata35"><rdf:RDF><cc:Work
         rdf:about=""><dc:format>image/svg+xml</dc:format><dc:type
           rdf:resource="http://purl.org/dc/dcmitype/StillImage" /><dc:title></dc:title></cc:Work></rdf:RDF></metadata><defs
     id="defs33" /><sodipodi:namedview
     pagecolor="#ffffff"
     bordercolor="#666666"
     borderopacity="1"
     objecttolerance="10"
     gridtolerance="10"
     guidetolerance="10"
     inkscape:pageopacity="0"
     inkscape:pageshadow="2"
     inkscape:window-width="1643"
     inkscape:window-height="789"
     id="namedview31"
     showgrid="false"
     inkscape:zoom="1.9109312"
     inkscape:cx="95.13625"
     inkscape:cy="156.35761"
     inkscape:window-x="0"
     inkscape:window-y="22"
     inkscape:window-maximized="0"
     inkscape:current-layer="Layer_1" /><style
     type="text/css"
     id="style3">
	.st0{fill:#EFEFEF;}
	.st1{fill:none;stroke:#23A0B2;stroke-width:2;stroke-miterlimit:10;stroke-dasharray:10,6;}
	.st2{fill:#FFFFFF;stroke:#A8A8A8;stroke-width:2;stroke-miterlimit:10;}
	.st3{fill:none;stroke:#C6C5C5;stroke-miterlimit:10;}
	.st4{fill:#C6C5C5;}
	.st5{fill:#23A0B2;}
	.st6{fill:#FFFFFF;stroke:#9B9B9B;stroke-miterlimit:10;}
</style><g
     id="XMLID_1_"><circle
       id="XMLID_38_"
       class="st0"
       cx="127.5"
       cy="123.5"
       r="117.7" /><g
       id="g7"><line
         id="XMLID_37_"
         class="st1"
         x1="119.3"
         y1="50.8"
         x2="219"
         y2="123.5"
         style="stroke:#74ac00;stroke-opacity:1" /><line
         id="XMLID_36_"
         class="st1"
         x1="101.7"
         y1="49.2"
         x2="175"
         y2="146.3"
         style="stroke:#74ac00;stroke-opacity:1" /><g
         id="g11"><g
           id="g13"><g
             id="mobile_1_"><g
               id="XMLID_177_"><path
                 id="XMLID_178_"
                 class="st2"
                 d="M38.1,27.4h70.6c5.8,0,10.4,4.7,10.4,10.5v158.6c0,5.8-4.6,10.2-10.4,10.2H38.1        c-5.8,0-10.3-4.2-10.3-10l0-158.7C27.8,32.2,32.3,27.4,38.1,27.4z" /></g><g
               id="XMLID_102_"><path
                 id="XMLID_103_"
                 class="st3"
                 d="M73.5,184c3.2,0,5.9,2.6,5.9,5.9s-2.6,5.9-5.9,5.9s-5.9-2.6-5.9-5.9        C67.6,186.7,70.2,184,73.5,184z" /></g><g
               id="XMLID_88_"><path
                 id="XMLID_89_"
                 class="st3"
                 d="M33.6,50.8l79.7,0l0.1,124.2l-79.8,0C33.6,175,33.6,50.8,33.6,50.8z" /></g><g
               id="XMLID_31_"><g
                 id="XMLID_72_"><path
                   id="XMLID_73_"
                   class="st4"
                   d="M65.2,40.3h16.5c0.6,0,1.2,0.5,1.2,1.1s-0.5,1-1.2,1H65.2c-0.6,0-1.2-0.3-1.2-1         S64.6,40.3,65.2,40.3z" /></g><g
                 id="XMLID_34_"><path
                   id="XMLID_39_"
                   class="st4"
                   d="M73.5,32.2c0.6,0,1.2,0.5,1.2,1.2s-0.5,1.2-1.2,1.2s-1.2-0.5-1.2-1.2         S72.8,32.2,73.5,32.2z" /></g></g></g></g></g></g></g><path
     class="st5"
     d="M95.4,109.6c-0.8,0.2-1.6-0.2-1.8-1c-0.2-0.8,0.2-1.6,1-1.8c0,0,0,0,0,0c0.8-0.2,1.6,0.2,1.8,1  C96.7,108.5,96.2,109.3,95.4,109.6 M56.1,90.3c-0.8,0.2-1.8,0.7-2.5,1.1c-0.7,0.6-1.6,1-2.3,1.7c-0.3,0.3-0.6,0.5-1,0.7  c-1.6,1.9-3.7,3-4.3,5.6c-0.7,2.7-1.7,5.2,1.2,7.1c0.4,0.3,0.9,0.3,1.3,0.6c-0.1,0.6-0.2,1.3-0.2,1.9c0,1.1-0.9,2.4-0.8,3.4  c-0.2,1.1,0.9,1.8,1.5,2.5c0.6,0.8,1,2,1.4,2.9c-0.6,0-1.1,0-1.6,0.2c-1.9,0.5-2.3,2.3-2.2,4.6c0.2,2.8,1.9,5.2,3.8,7.1  c2.2,2.2,4.8,3.4,7.2,5.3c1.2,0.9,2.4,1.8,3.7,2.6c1.2,0.4,1.2,1.4,2.1,2.3c1,0.9,1.8,2.2,2.3,3.4c0.1,0.3,0.2,0.7,0.5,0.6  c0,0,0.1,0,0.2-0.1c0.3-0.5,0-0.9-0.1-1.4c-0.2-0.8-0.5-2.4,0.5-2.7c0,0,0.1,0,0.1,0c1.1-0.2,2.8,0.2,3.7,0.7  c0.4,0.2,2.6,1.9,3.1,1.7c0,0,0.1,0,0.1-0.1c0.4-0.4-2-2-2.2-2.2c-1-0.9-4.9-3.5-1.9-4.3c0.1,0,0.2-0.1,0.4-0.1  c-0.1,0.6,0.3,0.7,0.6,0.7c0.3-0.1,0.5-0.3,0.6-0.7c0.2-0.9-0.5-1.2-1.2-1.3c-2-0.2-2.8-1-4-2.3c-0.1,0-0.2,0-0.2,0  c-0.5,0.1-1,0.2-1.4,0.2c-0.5,0-1-0.1-1.4,0.1c-0.7,0.2-1.4-0.1-2.1,0c-0.4,0-0.7,0-1.1,0c-0.7-0.1-1.3-0.2-2-0.4  c-1.3-0.4-2.6-0.9-3.8-1.5c-0.6-0.3-1.2-0.4-1.7-0.7c-0.6-0.3-1.5-0.6-1.9-1.2c0.3,0.1,0.6,0.3,0.9,0.4c0.3,0.1,0.5,0.3,0.8,0.4  c0.6,0.1,1.1,0.4,1.7,0.6c0.7,0.2,1.4,0.7,2.2,0.8c0.6,0.1,1.3,0.4,1.9,0.5c1.2,0.4,2.3,0.4,3.6,0.5c0.6,0.1,1.3,0.1,1.9,0.1  c0.7,0,1.3-0.2,1.9-0.2c0.2,0,0.7,0,1,0.1c0.4,0,0.7,0,1-0.1c0.6-0.2,1-0.5,1.6-1.4c0.6-1,0.8-2.1,0.4-3.2c-0.7-2.6-2.6-2.7-4.1-4.5  c2.1,0.4,4.2,0,6.2-0.6c0.4-0.1,0.8-0.2,1.3-0.4c0.4-0.1,1.2-0.5,1.9-0.7c0.6-0.2,1.1-0.2,1.3,0c0.4,0.4-1.1,3.7-1.1,4.6  c0.2,3,3.9,2.5,6.1,2.3c1.3-0.1,2.5-0.7,3.9-0.6c0.8,0.1,2.7,0.3,2.9,1.2c0,0.3,0.2,0.4,0.3,0.4c0.3-0.1,0.6-0.9-0.1-1.5  c-0.7-0.6-2.4-1.1-1.8-2.4c0.5-1.2,2.4-1.2,3.2-2.2c0.5-0.6,0.1-0.5-0.4-0.4c-0.4,0.1-0.7,0.2-0.7,0.3c-0.2,0.1-0.4,0.1-0.7,0.2  c-0.9,0.2-2.1,0.4-2.3-0.6c-0.1-0.6,0.4-2.9-0.6-2.8c-0.2,0.3-0.4,1.7-0.9,1.9c-0.2,0-0.4-0.1-0.7-0.5c-0.2-0.4-0.5-1.2-0.9-1.3  c-0.1,0.2-0.2,0.5-0.3,0.7c-0.2,0.6-0.3,1.1-0.7,1.6c-0.4,0.7-1.1,1.5-0.8,2.4c0.1,0.3,0.4,0.4,0.5,0.6c0,0,0,0,0,0  c-0.2,0-0.3-0.1-0.4-0.2c-0.4-0.5-0.3-1.3-0.1-1.8c0.3-0.8,0.7-1.5,1-2.2c0.1-0.3,0.2-0.7,0.4-1.1l0,0l-0.1,0.1  c0.1,0,0.1-0.1,0.2-0.2l0.1-0.2c0.2-0.5,0.5-1.4,0.8-1.7c0.3-0.2,0.6-0.4,0.9-0.5c0.6-0.2,1.4-0.2,2-0.3c0.6-0.1,1.3-0.2,1.9-0.4  c2.5-0.7,4.9-1.9,7.2-2.9c1.7-0.7,3.3-1.2,4.7-2.3c2.2-1.7,6.6-5.8,3.6-8.5l0,0l0,0c0,0,0,0,0,0c0,0.1,0.1,0.2,0,0.2c0,0,0,0,0,0  l0,0c0,0,0,0,0,0c0,0,0,0,0,0l0,0c-0.1-0.2-0.3-0.4-0.4-0.6l0,0c0.1,0.1,0.3,0.2,0.4,0.3l0,0l0,0c-0.9-1-1.7-2.1-2.8-2.9  c-0.7-0.5-1.5-0.8-1.8-1.6c-0.5-0.8-1.4-1.1-2.3-1c-0.9,0.2-1.6-0.3-2.5-0.5c-1.1-0.2-1.7-0.6-2.9-0.4c-0.6,0.1-1.2,0.2-1.7,0.3  c-0.3,0.1-0.6,0.2-0.9,0.3c0,0-0.1,0-0.2,0.1c-0.6,0.2-2,0.3-2.4,0.1c-0.6,0.1-1.4,0-2-0.2c-0.8-0.3-1.3-0.9-1.7-1.6  c-0.3-0.5-0.8-1.5-0.9-2.3c-0.2-0.2-0.4-0.4-0.6-0.6c-0.7-0.4-1.4-1.5-2.3-1.4c-0.2,0-0.3,0-0.5,0.1c-0.5,0.1-1,0.4-1.5,0.6  c-0.8,1.7-0.3,3.4,0.9,4.7c0,0-0.1,0-0.1,0C76,96.1,74.6,96.2,74,96c-0.8-0.2-1.1-0.2-1.4-0.1c0,0-0.1,0-0.1,0c0,0-0.1,0-0.1,0  c-0.2,0.1-0.4,0.1-0.7,0.1c-0.4,0-1.1-0.3-1.6-0.1c-0.1,0-0.2,0.1-0.3,0.2c-0.2,0.2-0.4,0.3-0.6,0.4c-0.3,0.1-0.6,0-1.1-0.1  c-0.2,0-0.7,0.2-1.3,0.3c-0.5,0.1-1,0.3-1.1,0.4c-0.3,0.3-0.6,0.4-0.9,0.5c-0.1,0-0.2,0.1-0.3,0.1c-0.1,0-0.2,0-0.3,0.1  c-0.2,0.1-0.5,0.2-0.8,0.4c-0.1,0-0.2,0-0.3,0.1c-0.4,0.1-0.9,0.4-1.3,0.6c-0.4,0.3-0.9,0.5-1.3,0.6c-0.2,0.1-0.4,0.1-0.7,0.1  c0-0.8,0.3-1.5,0.2-2.3l0,0c0-1.1-0.2-2.2-0.2-3.2c0-1.1-0.2-2.4-1-3.2c-0.7-0.7-1.6-0.8-2.5-0.6C56.4,90.3,56.2,90.3,56.1,90.3"
     id="path27"
     style="fill:#74ac00;fill-opacity:1" /><path
     class="st6"
     d="M225.4,142.8c-0.7,0.2-1.4-0.3-1.6-1c-0.2-0.7,0.3-1.4,1-1.6c0,0,0,0,0,0c0.7-0.2,1.4,0.3,1.6,1  C226.6,141.9,226.1,142.6,225.4,142.8 M190.5,123.6c-0.8,0.2-1.7,0.5-2.3,0.9c-0.7,0.5-1.5,0.9-2.1,1.5c-0.3,0.2-0.6,0.4-0.9,0.6  c-1.5,1.6-3.5,2.6-4.2,4.9c-0.7,2.4-1.7,4.7,0.8,6.5c0.4,0.3,0.8,0.3,1.2,0.6c-0.2,0.6-0.2,1.2-0.2,1.7c-0.1,1-0.9,2.2-0.8,3  c-0.2,0.9,0.7,1.7,1.3,2.4c0.6,0.7,0.9,1.9,1.1,2.7c-0.6,0-1,0-1.4,0.1c-1.8,0.4-2.2,2-2.2,4.1c0,2.5,1.5,4.8,3.2,6.6  c1.9,2.1,4.2,3.3,6.3,5.1c1,0.9,2.1,1.7,3.2,2.5c1.1,0.4,1.1,1.4,1.8,2.2c0.8,0.9,1.6,2,1.9,3.2c0.1,0.3,0.2,0.6,0.4,0.6  c0,0,0.1,0,0.1-0.1c0.3-0.5,0-0.8-0.1-1.3c-0.1-0.7-0.4-2.2,0.6-2.4c0,0,0.1,0,0.1,0c1-0.1,2.5,0.3,3.3,0.8c0.3,0.2,2.3,1.8,2.8,1.7  c0,0,0.1,0,0.1-0.1c0.4-0.4-1.7-1.9-1.9-2.1c-0.9-0.8-4.3-3.4-1.6-4c0.1,0,0.2,0,0.4-0.1c-0.1,0.5,0.2,0.7,0.5,0.6  c0.2-0.1,0.5-0.3,0.6-0.6c0.2-0.8-0.4-1.1-1.1-1.2c-1.8-0.3-2.5-1-3.6-2.3c-0.1,0-0.1,0-0.2,0c-0.4,0-0.9,0.1-1.3,0.1  c-0.4,0-0.9-0.1-1.3,0c-0.6,0.1-1.3-0.1-1.9-0.1c-0.3,0-0.7,0-1-0.1c-0.6-0.1-1.2-0.3-1.8-0.5c-1.2-0.4-2.3-0.9-3.4-1.5  c-0.5-0.3-1-0.4-1.6-0.7c-0.6-0.3-1.3-0.6-1.7-1.1c0.3,0.1,0.6,0.3,0.8,0.4c0.2,0.1,0.5,0.3,0.7,0.4c0.5,0.2,1,0.5,1.5,0.6  c0.7,0.2,1.3,0.7,2,0.8c0.5,0.1,1.1,0.4,1.7,0.6c1.1,0.4,2.1,0.5,3.2,0.6c0.6,0.1,1.2,0.1,1.8,0.1c0.6,0,1.2-0.1,1.8-0.1  c0.2,0,0.6,0,0.9,0.1c0.4,0,0.7,0,0.9-0.1c0.6-0.1,1-0.5,1.5-1.2c0.6-0.9,0.8-1.9,0.5-2.9c-0.5-2.4-2.2-2.5-3.6-4.2  c1.9,0.5,3.8,0.2,5.6-0.3c0.4-0.1,0.8-0.2,1.2-0.3c0.3-0.1,1.1-0.4,1.7-0.5c0.5-0.1,1-0.1,1.2,0.1c0.4,0.4-1.2,3.3-1.2,4.2  c0,2.8,3.5,2.4,5.5,2.4c1.2,0,2.3-0.6,3.5-0.4c0.7,0.1,2.5,0.4,2.6,1.3c0,0.3,0.1,0.4,0.2,0.3c0.3-0.1,0.5-0.8,0-1.3  c-0.6-0.6-2.2-1.1-1.6-2.3c0.5-1.1,2.2-1,3-1.8c0.5-0.5,0.1-0.5-0.4-0.4c-0.3,0.1-0.7,0.2-0.7,0.2c-0.2,0-0.4,0.1-0.6,0.2  c-0.8,0.2-2,0.3-2.1-0.6c-0.1-0.6,0.5-2.6-0.5-2.6c-0.2,0.2-0.5,1.6-0.9,1.7c-0.2,0-0.4-0.1-0.6-0.5c-0.2-0.4-0.4-1.1-0.8-1.2  c-0.1,0.2-0.2,0.4-0.3,0.6c-0.2,0.5-0.4,1-0.7,1.4c-0.4,0.6-1,1.4-0.8,2.1c0.1,0.2,0.4,0.4,0.4,0.6c0,0,0,0,0,0  c-0.1,0-0.3-0.1-0.3-0.2c-0.4-0.4-0.2-1.2,0-1.6c0.3-0.7,0.7-1.3,1-2c0.1-0.2,0.2-0.6,0.4-1l0,0l-0.1,0c0.1,0,0.1-0.1,0.2-0.2  l0.1-0.2c0.2-0.5,0.5-1.2,0.8-1.5c0.3-0.2,0.6-0.3,0.9-0.4c0.6-0.1,1.2-0.1,1.8-0.2c0.6-0.1,1.2-0.2,1.8-0.3  c2.3-0.5,4.5-1.5,6.7-2.3c1.5-0.6,3-1,4.4-1.9c2.1-1.5,6.2-5,3.7-7.6l0,0l0,0c0,0,0,0,0,0c0,0.1,0.1,0.2,0,0.2c0,0,0,0,0,0l0,0  c0,0,0,0,0,0c0,0,0,0,0,0l0,0c-0.1-0.2-0.2-0.4-0.3-0.6l0,0c0.1,0.1,0.2,0.2,0.3,0.3l0,0l0,0c-0.8-0.9-1.5-2-2.4-2.7  c-0.6-0.5-1.4-0.8-1.6-1.5c-0.5-0.8-1.2-1-2.1-1c-0.9,0.1-1.4-0.4-2.2-0.6c-1-0.3-1.5-0.6-2.6-0.5c-0.6,0.1-1.1,0.1-1.6,0.2  c-0.3,0.1-0.5,0.1-0.8,0.2c0,0-0.1,0-0.2,0c-0.5,0.1-1.8,0.2-2.2,0c-0.6,0.1-1.3-0.1-1.8-0.3c-0.7-0.3-1.1-0.9-1.5-1.5  c-0.3-0.5-0.7-1.4-0.7-2.1c-0.2-0.2-0.4-0.4-0.6-0.6c-0.6-0.4-1.2-1.4-2-1.4c-0.2,0-0.3,0-0.4,0.1c-0.5,0.1-0.9,0.3-1.4,0.5  c-0.8,1.5-0.4,3.1,0.6,4.4c0,0-0.1,0-0.1,0c-0.6,0.1-1.9,0.2-2.4,0c-0.7-0.2-1-0.2-1.3-0.1c0,0-0.1,0-0.1,0c0,0-0.1,0-0.1,0  c-0.2,0-0.4,0.1-0.7,0.1c-0.4,0-1-0.3-1.4-0.2c-0.1,0-0.2,0.1-0.3,0.2c-0.2,0.2-0.4,0.3-0.6,0.3c-0.3,0.1-0.5,0-1-0.1  c-0.2,0-0.7,0.1-1.2,0.2c-0.5,0.1-0.9,0.2-1,0.3c-0.3,0.3-0.5,0.4-0.8,0.4c-0.1,0-0.2,0-0.3,0.1c-0.1,0-0.2,0-0.3,0.1  c-0.2,0.1-0.5,0.1-0.7,0.3c-0.1,0-0.2,0-0.2,0c-0.4,0.1-0.8,0.3-1.2,0.5c-0.4,0.2-0.8,0.4-1.2,0.5c-0.2,0-0.4,0.1-0.6,0  c0.1-0.7,0.3-1.4,0.3-2.1l0,0c0-1-0.1-2,0-3c0-1,0-2.2-0.7-3c-0.6-0.7-1.4-0.8-2.2-0.7C190.7,123.6,190.6,123.6,190.5,123.6"
     id="path29" /></svg>